<svg preserveAspectRatio="xMidYMid meet" data-bbox="177.65 124.6 852.34 184.85" viewBox="177.65 124.6 852.34 184.85" xmlns="http://www.w3.org/2000/svg" data-type="color" role="presentation" aria-hidden="true">
    <g>
        <path d="M587.9 204.49c-4.83-4.13-10.83-6.2-18.01-6.2-11.85 0-20.37 5.78-25.55 17.33l.9-12.55V170.2h-23.61v79.57c7.9-1.15 15.76-2.36 23.61-3.62v-6.76c0-6.97 1.34-12.38 4.03-16.21 2.69-3.84 6.38-5.75 11.06-5.75 7.47 0 11.21 5.18 11.21 15.54v8.76c7.82-1.37 15.68-2.8 23.61-4.29v-14.48c0-8.17-2.42-14.32-7.25-18.45Zm58.5 9.49c7.37 0 11.06 3.64 11.06 10.91v.13c7.68-1.6 15.49-3.26 23.45-4.95-.85-6.41-3.49-11.43-7.91-15.05-5.48-4.48-14.35-6.72-26.6-6.72-3.79 0-7.47.4-11.06 1.19-3.59.8-7.15 2.07-10.68 3.81-3.54 1.74-6.48 4.28-8.82 7.62s-3.71 7.3-4.11 11.88l23.01 1.64c.5-6.97 4.38-10.46 11.65-10.46Zm80.84-3.94c7.94-1.73 16.05-3.51 24.35-5.33v-5.68c-1.4-.5-3.44-.75-6.13-.75-7.69 0-13.76 3.93-18.23 11.75Zm62-29.23h-23.61v20.81c8.07-1.82 15.92-3.75 23.61-5.79v-15.02Zm-64.55 19.13h-22.71v15.6c7.43-1.61 14.99-3.25 22.71-4.94v-10.66Zm40.94 44.38c0 5.98.3 10.81.9 14.49.6 3.69 1.89 7.27 3.88 10.76s5.11 6.03 9.34 7.62c4.23 1.59 9.74 2.39 16.51 2.39 3.89 0 7.57-.55 11.06-1.64v-18.38h-8.07c-3.89 0-6.53-1.12-7.92-3.36-1.4-2.24-2.09-6.2-2.09-11.88v-26.45h18.08v-16.04c-11.56 3.59-25.03 7.76-41.69 12.97v29.51Zm90.4-46.02c-12.25 0-21.97 3.66-29.14 10.98-7.17 7.32-10.76 17.46-10.76 30.41s3.56 22.21 10.68 29.29c7.12 7.07 16.86 10.61 29.21 10.61 9.96 0 18.08-2.47 24.36-7.4 6.28-4.93 10.21-11.78 11.8-20.55h-23.76c-1.39 6.97-5.83 10.46-13.3 10.46-8.97 0-13.9-6.03-14.79-18.08h52l.45-7.02c0-12.65-3.31-22.26-9.94-28.84-6.62-6.57-15.56-9.86-26.82-9.86Zm-15.24 32.13c1.59-9.96 6.38-14.94 14.35-14.94s12.5 4.98 13.6 14.94H840.8Zm86.81-15.09v-15.39h-22.71v77.85h23.61v-38.7c0-13.25 5.68-19.87 17.03-19.87h8.97v-20.17c-1.4-.5-3.44-.75-6.13-.75-9.26 0-16.19 5.68-20.77 17.03ZM701.98 277.8h23.61v-38.7c0-5.9 1.13-10.48 3.38-13.75-9.2 2.52-18.2 4.94-26.99 7.26v45.19Zm324.69-34.37c-2.19-3.29-4.96-5.73-8.29-7.32-3.34-1.59-6.92-3.01-10.76-4.26-3.83-1.25-7.42-2.27-10.76-3.06-3.34-.8-6.1-1.99-8.29-3.59-2.19-1.59-3.29-3.54-3.29-5.83 0-3.98 3.39-5.98 10.16-5.98s10.61 3.39 11.21 10.16l22.56-.6c-2.09-16.44-13.5-24.65-34.22-24.65-8.87 0-16.59 2.02-23.16 6.05-6.57 4.03-9.86 9.74-9.86 17.11 0 4.08.82 7.65 2.47 10.68 1.64 3.04 3.76 5.4 6.35 7.1 2.59 1.69 5.48 3.16 8.67 4.41 3.19 1.25 6.38 2.29 9.56 3.14s6.08 1.69 8.67 2.54 4.71 1.94 6.35 3.29c1.64 1.34 2.47 2.96 2.47 4.86 0 4.08-3.64 6.13-10.91 6.13-7.97 0-12.25-3.34-12.85-10.01h-22.86c.4 4.28 1.54 8.07 3.44 11.36 1.89 3.29 4.06 5.83 6.5 7.62 2.44 1.79 5.28 3.24 8.52 4.33 3.24 1.1 6.13 1.82 8.67 2.17 2.54.35 5.06.52 7.55.52 10.96 0 19.6-2.17 25.93-6.5 6.33-4.33 9.49-10.24 9.49-17.71 0-4.68-1.1-8.67-3.29-11.95ZM521.64 277.8h23.61v-10.49c-8.02 1.36-15.89 2.62-23.61 3.78v6.71Zm160.7-17.71c-.75-1.35-1.12-4.06-1.12-8.14v-13.96c-8.08 2.06-16 4.02-23.76 5.91v1.04c0 5.68-1.37 9.99-4.11 12.93-2.74 2.94-6.15 4.41-10.24 4.41-1.49 0-2.89-.15-4.18-.45-1.3-.3-2.64-1.15-4.04-2.54-1.39-1.4-2.09-3.29-2.09-5.68 0-1.57.27-2.92.79-4.06-8.36 1.92-16.53 3.74-24.54 5.46v.4c0 4.58.82 8.54 2.47 11.88 1.64 3.34 3.86 5.85 6.65 7.55 2.79 1.69 5.58 2.91 8.37 3.66 2.79.75 5.68 1.12 8.67 1.12 11.06 0 18.83-4.93 23.31-14.79.2 5.38 1.79 9.19 4.78 11.43s8.02 3.36 15.09 3.36c3.98 0 8.27-.65 12.85-1.94v-15.54h-4.03c-2.49 0-4.11-.67-4.86-2.02Zm-110.8 17.71h23.61v-19.89c-8.03 1.65-15.9 3.21-23.61 4.67v15.21Zm-89.78-33.92c-1.6 5.64-4.21 9.77-7.84 12.42l30.09-3.44c1.13-2.8 2.05-5.79 2.76-8.98h-25.02Zm-32.37 34.99c3.9.77 8.05 1.17 12.48 1.17 8.49 0 15.94-1.67 22.39-5l-34.86 3.82Zm-27-16.69 31.01-3.54c-4.25-1.34-7.76-3.8-10.52-7.38-4.42-5.73-6.63-13.81-6.63-24.26s2.21-18.59 6.63-24.41c4.42-5.83 10.75-8.74 18.99-8.74 10.45 0 17.23 5.68 20.34 17.03h24.87c-2.31-11.55-7.43-20.57-15.37-27.05s-17.88-9.72-29.84-9.72c-15.37 0-27.58 4.75-36.62 14.24s-13.56 22.38-13.56 38.65c0 14.42 3.45 26.15 10.34 35.19h.37Z" fill="#ffffff" data-color="1"></path>
        <path d="m330.97 250.73-15.99-50.8h-24.95l26.18 67.28c10-.35 19.74-.74 29.22-1.18l26.78-66.1h-24.66l-16.59 50.8Zm-75.61 18.02c8.04-.14 15.9-.29 23.61-.47v-98.09h-23.61v98.56Zm-77.7.64h3.13c7.1 0 14.07-.03 20.92-.07v-32.04h35.26V218.3h-35.26v-22.71h38.25v-19.13h-62.31v92.93Zm137.08 15.03-9.93 25.03h23.01l10.19-25.15c-4.61.03-9.23.04-13.89.04-3.14 0-6.27.03-9.39.08Z" fill="#e30613" data-color="2"></path>
        <path d="M855.91 173.99s20.63-13.58 17.7-27.57c0 0 25.61-2.85 54.08-21.82 0 0-12.64 31.05-71.77 49.39Z" fill="#e30613" data-color="2"></path>
    </g>
</svg>