<?xml version="1.0" encoding="UTF-8"?>
<svg id="mercury" data-name="mercury" xmlns="http://www.w3.org/2000/svg" viewBox="0 0 118 100" width="59" height="50">
  <defs>
    <style>
      .cls-1 {
        fill: #fff;
        fill-rule: evenodd;
      }
    </style>
  </defs>
  <path class="cls-1" d="M36.69,75.19c.74-.64,1.48-.8,2.49-1.13,.94-.31,1.82-.58,2.79-.83,8.72-2.17,22.54-4.52,31.45-5.75,4.24-.59,8.67-1.59,12.14-2.85,1.8-.66,3.53-1.4,5.17-2.06,11.77-4.82,21.93-17.1,21.93-30.28-.49,.35-4.17,5.83-6.15,7.81-.64,.64-.72,.91-1.28,1.56-3.65,4.17-11.76,9.25-16.52,11.65-9.74,4.89-22.86,7.67-35.12,10.09-3.99,.79-9.7,1.92-13.44,3.36-9.25,3.55-18.58,9.48-25.62,16.49l-2.98,2.71c-.28,.31-.3,.37-.58,.7l-4.83,5.25c-1.55,1.72-5.17,6.23-6.15,8.07H0l4.14-2.56c10.94-6.57,25.55-10.36,38.49-10.36,3.03,0,8.27-.06,11.03,.07,3.68,.17,7.05,.03,10.9,.23,2.69,.14,7.37-.02,10.39-.28,3.63-.3,6.84-.73,9.85-1.51,8.18-2.12,15.62-6.67,18.85-14.75,.8-2,2.29-6.32,2.29-9.08-.64,.43-.77,.7-1.37,1.21l-4.59,3.17c-3.97,2.29-10.58,4.68-15.26,5.68l-8.83,1.76c-5.32,.78-11.01,1.49-16.47,1.61"/>
  <path class="cls-1" d="M74.42,45.73c1.42-.12,10.32-4.11,12.41-5.16l7.65-3.99c1.33-.79,2.44-1.47,3.71-2.22,6.59-3.97,14.53-10.37,17.66-17.74,3.49-8.23-1.2-16.33-4.73-16.62-1.86,3.88-.38,4.74-6.72,13.7-2.64,3.71-4.67,5.8-6.87,8.64l-23.12,23.4Z"/>
</svg>