<svg xmlns="http://www.w3.org/2000/svg" width="220" height="40" viewBox="0 0 220 40"><title>abcorporate-logo</title><path d="M137.6,14.56a.37.37,0,0,1,.29.13l.81.88a4.47,4.47,0,0,1-1.65,1.27,5.65,5.65,0,0,1-2.36.45,5.58,5.58,0,0,1-2.21-.42,4.85,4.85,0,0,1-1.67-1.17,5.12,5.12,0,0,1-1.07-1.79,6.63,6.63,0,0,1-.37-2.27,6.21,6.21,0,0,1,.41-2.28,5.28,5.28,0,0,1,1.16-1.78,5.17,5.17,0,0,1,1.79-1.16A6.17,6.17,0,0,1,135,6a5.5,5.5,0,0,1,2.15.39,5.09,5.09,0,0,1,1.57,1.05l-.68,1-.16.16a.4.4,0,0,1-.26.07.61.61,0,0,1-.36-.14c-.13-.09-.28-.19-.47-.3a4.51,4.51,0,0,0-.71-.29,3.46,3.46,0,0,0-1.1-.14,3.68,3.68,0,0,0-1.43.27,3.06,3.06,0,0,0-1.12.78,3.47,3.47,0,0,0-.74,1.22,4.83,4.83,0,0,0-.26,1.62,5,5,0,0,0,.26,1.66,3.75,3.75,0,0,0,.72,1.22,3,3,0,0,0,1.06.76,3.2,3.2,0,0,0,1.31.27,5.7,5.7,0,0,0,.76-.05,2.91,2.91,0,0,0,.63-.15,2.65,2.65,0,0,0,.54-.25,3.46,3.46,0,0,0,.51-.39.91.91,0,0,1,.16-.11A.37.37,0,0,1,137.6,14.56Zm13.24-2.92a6.12,6.12,0,0,1-.4,2.25,5.27,5.27,0,0,1-1.14,1.79,5.1,5.1,0,0,1-1.76,1.18,6.29,6.29,0,0,1-4.57,0,5.18,5.18,0,0,1-1.78-1.18,5.27,5.27,0,0,1-1.14-1.79,6.12,6.12,0,0,1-.4-2.25,6.12,6.12,0,0,1,.4-2.25,5.37,5.37,0,0,1,1.14-1.79A5.48,5.48,0,0,1,143,6.42,6,6,0,0,1,145.25,6a5.84,5.84,0,0,1,2.29.43,5.19,5.19,0,0,1,2.9,3A6.12,6.12,0,0,1,150.84,11.64Zm-2.1,0A5.17,5.17,0,0,0,148.5,10a3.4,3.4,0,0,0-.7-1.22A2.82,2.82,0,0,0,146.71,8a3.76,3.76,0,0,0-1.46-.27A3.71,3.71,0,0,0,143.8,8a2.81,2.81,0,0,0-1.11.77A3.55,3.55,0,0,0,142,10a5.17,5.17,0,0,0-.24,1.63,5.13,5.13,0,0,0,.24,1.63,3.69,3.69,0,0,0,.7,1.23,3,3,0,0,0,1.11.76,3.71,3.71,0,0,0,1.45.27,3.76,3.76,0,0,0,1.46-.27,3,3,0,0,0,1.09-.76,3.53,3.53,0,0,0,.7-1.23A5.13,5.13,0,0,0,148.74,11.64Zm5.85,1.21v4.31h-2.06v-11h3.37a6.78,6.78,0,0,1,1.93.24,3.67,3.67,0,0,1,1.33.65,2.52,2.52,0,0,1,.75,1,3.37,3.37,0,0,1,.24,1.29,3.3,3.3,0,0,1-.16,1,3,3,0,0,1-.48.9,3,3,0,0,1-.76.71,3.77,3.77,0,0,1-1,.49,2,2,0,0,1,.67.64l2.76,4.07H159.3a.93.93,0,0,1-.45-.1,1,1,0,0,1-.32-.31l-2.32-3.53a.78.78,0,0,0-.28-.29,1.14,1.14,0,0,0-.47-.08Zm0-1.47h1.28a3.07,3.07,0,0,0,1-.15,1.94,1.94,0,0,0,.71-.4,1.52,1.52,0,0,0,.42-.61,2.11,2.11,0,0,0,.13-.77,1.56,1.56,0,0,0-.55-1.29,2.64,2.64,0,0,0-1.69-.45h-1.31Zm10,1.9v3.88h-2.06v-11h3.6a6.41,6.41,0,0,1,1.92.26,3.76,3.76,0,0,1,1.33.73,2.68,2.68,0,0,1,.78,1.11,4.07,4.07,0,0,1,0,2.89,3.1,3.1,0,0,1-.8,1.15A3.86,3.86,0,0,1,168,13a5.87,5.87,0,0,1-1.88.27Zm0-1.61h1.54a3,3,0,0,0,1-.14,1.8,1.8,0,0,0,.69-.4,1.72,1.72,0,0,0,.41-.64,2.33,2.33,0,0,0,.14-.85,2.07,2.07,0,0,0-.14-.8,1.6,1.6,0,0,0-.41-.61,1.78,1.78,0,0,0-.69-.39,3.6,3.6,0,0,0-1-.13h-1.54Zm18,0a6.12,6.12,0,0,1-.4,2.25,5.27,5.27,0,0,1-1.14,1.79,5.1,5.1,0,0,1-1.76,1.18,6.29,6.29,0,0,1-4.57,0A5.18,5.18,0,0,1,173,15.68a5.27,5.27,0,0,1-1.14-1.79,6.12,6.12,0,0,1-.4-2.25,6.12,6.12,0,0,1,.4-2.25A5.37,5.37,0,0,1,173,7.6a5.48,5.48,0,0,1,1.78-1.18A6,6,0,0,1,177,6a5.84,5.84,0,0,1,2.29.43,5.19,5.19,0,0,1,2.9,3A6.12,6.12,0,0,1,182.6,11.64Zm-2.1,0a5.17,5.17,0,0,0-.24-1.63,3.55,3.55,0,0,0-.7-1.22A2.82,2.82,0,0,0,178.47,8,3.76,3.76,0,0,0,177,7.75a3.71,3.71,0,0,0-1.45.27,2.81,2.81,0,0,0-1.11.77,3.55,3.55,0,0,0-.7,1.22,5.17,5.17,0,0,0-.24,1.63,5.13,5.13,0,0,0,.24,1.63,3.69,3.69,0,0,0,.7,1.23,3,3,0,0,0,1.11.76,3.71,3.71,0,0,0,1.45.27,3.76,3.76,0,0,0,1.46-.27,3,3,0,0,0,1.09-.76,3.69,3.69,0,0,0,.7-1.23A5.13,5.13,0,0,0,180.5,11.64Zm5.85,1.21v4.31h-2.06v-11h3.37a6.78,6.78,0,0,1,1.93.24,3.67,3.67,0,0,1,1.33.65,2.52,2.52,0,0,1,.75,1,3.37,3.37,0,0,1,.24,1.29,3.3,3.3,0,0,1-.16,1,3,3,0,0,1-.48.9,3,3,0,0,1-.76.71,3.77,3.77,0,0,1-1,.49,2,2,0,0,1,.67.64l2.76,4.07h-1.85a.93.93,0,0,1-.45-.1,1,1,0,0,1-.32-.31L188,13.22a.78.78,0,0,0-.28-.29,1.14,1.14,0,0,0-.47-.08Zm0-1.47h1.28a3.07,3.07,0,0,0,1-.15,2,2,0,0,0,.71-.4,1.63,1.63,0,0,0,.42-.61,2.11,2.11,0,0,0,.13-.77,1.56,1.56,0,0,0-.55-1.29,2.64,2.64,0,0,0-1.69-.45h-1.31Zm17.58,5.78h-1.59a.72.72,0,0,1-.44-.13.78.78,0,0,1-.24-.33l-.83-2.25h-4.57l-.83,2.25a.71.71,0,0,1-.24.32.65.65,0,0,1-.44.14h-1.59l4.33-11h2.11ZM196.78,13h3.53L199,9.32c-.06-.16-.13-.35-.2-.57s-.15-.47-.22-.73c-.07.26-.14.51-.21.73s-.14.42-.2.59Zm14.95-6.88V7.81h-3.32v9.35h-2.06V7.81H203V6.12Zm8.27,0V7.76h-4.9v3.06H219V12.4H215.1v3.12H220v1.64h-7v-11ZM139.72,33.83h-1.59a.68.68,0,0,1-.44-.14.81.81,0,0,1-.25-.33l-.82-2.25H132l-.82,2.25a.71.71,0,0,1-.24.32.67.67,0,0,1-.44.15h-1.6l4.34-11h2.1Zm-7.15-4.17h3.52L134.75,26l-.21-.57q-.1-.33-.21-.72-.12.39-.21.72c-.07.23-.14.42-.21.59Zm5.91-6.88h1.66a.71.71,0,0,1,.43.13.78.78,0,0,1,.25.34l2.6,6.74a6.63,6.63,0,0,1,.25.72c.08.26.15.54.22.83a9.7,9.7,0,0,1,.44-1.55l2.59-6.74a.8.8,0,0,1,.24-.32.67.67,0,0,1,.44-.15h1.66l-4.46,11h-1.86Zm14.24,11h-2.06v-11h2.06Zm12.19,0h-1.59a.7.7,0,0,1-.44-.14.9.9,0,0,1-.25-.33l-.82-2.25h-4.57l-.83,2.25a.71.71,0,0,1-.24.32.67.67,0,0,1-.44.15h-1.6l4.34-11h2.1Zm-7.15-4.17h3.52L159.94,26c-.06-.16-.13-.35-.2-.57s-.15-.46-.22-.72q-.11.39-.21.72c-.07.23-.14.42-.2.59Zm15-6.88v1.69h-3.32v9.36h-2.06V24.47H164V22.78Zm3.62,11h-2.07v-11h2.07ZM189.4,28.3a6.12,6.12,0,0,1-.4,2.25,5.41,5.41,0,0,1-1.14,1.8,5.16,5.16,0,0,1-1.77,1.17,5.76,5.76,0,0,1-2.28.43,5.88,5.88,0,0,1-2.29-.43,5.16,5.16,0,0,1-1.77-1.17,5.41,5.41,0,0,1-1.14-1.8,6.5,6.5,0,0,1,0-4.49,5.27,5.27,0,0,1,1.14-1.79,5,5,0,0,1,1.77-1.18,5.88,5.88,0,0,1,2.29-.43,5.76,5.76,0,0,1,2.28.43,5.18,5.18,0,0,1,1.77,1.18A5.27,5.27,0,0,1,189,26.06,6.1,6.1,0,0,1,189.4,28.3Zm-2.11,0a5.22,5.22,0,0,0-.24-1.63,3.47,3.47,0,0,0-.69-1.22,2.88,2.88,0,0,0-1.1-.77,3.71,3.71,0,0,0-1.45-.27,3.76,3.76,0,0,0-1.46.27,3,3,0,0,0-1.1.77,3.48,3.48,0,0,0-.7,1.22,5.69,5.69,0,0,0,0,3.27,3.48,3.48,0,0,0,.7,1.22,3.08,3.08,0,0,0,1.1.77,4,4,0,0,0,1.46.26,3.9,3.9,0,0,0,1.45-.26,3,3,0,0,0,1.1-.77,3.47,3.47,0,0,0,.69-1.22A5.24,5.24,0,0,0,187.29,28.3Zm5-5.5a.42.42,0,0,1,.16,0,.61.61,0,0,1,.14.1.86.86,0,0,1,.15.17l5.8,7.39c0-.18,0-.36,0-.53s0-.33,0-.47V22.78h1.81v11h-1.07a1,1,0,0,1-.4-.08.8.8,0,0,1-.31-.28l-5.78-7.35c0,.16,0,.33,0,.49s0,.3,0,.44v6.78H191v-11h1.08ZM103.24,34V6.07h9.64a18.24,18.24,0,0,1,4.69.52,8.86,8.86,0,0,1,3.18,1.49,5.8,5.8,0,0,1,1.83,2.33,8,8,0,0,1,.58,3.09,6.23,6.23,0,0,1-.29,1.89,5.27,5.27,0,0,1-.9,1.68,6.88,6.88,0,0,1-1.55,1.42,9.45,9.45,0,0,1-2.23,1.08c3.84.86,5.76,2.94,5.76,6.22a7.93,7.93,0,0,1-.68,3.28,7.13,7.13,0,0,1-2,2.6,9.29,9.29,0,0,1-3.18,1.71,14.05,14.05,0,0,1-4.33.62Zm5.2-15.84h4.15a6.89,6.89,0,0,0,4-1A3.49,3.49,0,0,0,118,14.12,3.63,3.63,0,0,0,116.74,11a6.44,6.44,0,0,0-3.86-.92h-4.44Zm0,3.59v8.19h5.27a7.37,7.37,0,0,0,2.43-.34,4.37,4.37,0,0,0,1.56-.93,3.44,3.44,0,0,0,.85-1.35,5.28,5.28,0,0,0,.26-1.65,4.23,4.23,0,0,0-.29-1.63,3,3,0,0,0-.91-1.23A4.12,4.12,0,0,0,116,22a8.75,8.75,0,0,0-2.34-.27ZM100.73,34h-4a1.73,1.73,0,0,1-1.11-.34,1.88,1.88,0,0,1-.63-.84l-2.09-5.7H81.31l-2.09,5.7a1.76,1.76,0,0,1-.6.81,1.71,1.71,0,0,1-1.11.37h-4l11-27.93h5.31ZM82.64,23.45h8.91l-3.4-9.29c-.15-.41-.33-.9-.51-1.46s-.37-1.17-.55-1.82c-.18.65-.36,1.27-.53,1.83s-.35,1.06-.52,1.49Z" style="fill:#fff"/><path d="M53.34,14.85l-.94-1.13.39-.49,1.38.5,0,.06c-.09.14-.16.3-.27.48l-.27.34A1.54,1.54,0,0,1,53.34,14.85ZM16.47,19.77c0-.42-.07-.85-.07-1.28A17,17,0,0,1,49.29,12.2l1.12-.2h.36A18.48,18.48,0,0,0,15,18.49c0,.26,0,.52,0,.79A3.48,3.48,0,0,0,16.47,19.77Zm15.28-8.51c-.14,0-2.44.69-2.67.73s-.26.29-.27.5,0,2.72-.08,4.61c2.89-.85,5.62-1.6,8.15-2.25-2-1.45-4.35-3.18-4.41-3.25S32.29,11.37,31.75,11.26ZM11.2,16a.92.92,0,0,0-.8-.12c-.34.07-1.09.27-1.44.36.83.39,1.87.88,3,1.46C11.69,17,11.27,16.1,11.2,16Zm-.55,4.17L10.8,20c.07-.07.2-.19.19-.23s-.13-.11-1.06,0c-.33,0-1.22.23-1.59.32a13.48,13.48,0,0,0-3.12,1L5,21.34c-.53.62-2.12,2.51-2.45,2.93-.56.71-.63.9-.63,1,.16,0,1.24-.14,2-.25.47-.08.91-.15,1.14-.17a2.24,2.24,0,0,0,1.38-.76S10.2,20.72,10.65,20.2Zm11.41-2.78a1.74,1.74,0,0,0,0,1.7,14.92,14.92,0,0,1-4,.74c-.35,0-.65,0-.93,0A8.79,8.79,0,0,1,22.06,17.42Zm-.43.43a0,0,0,0,0,0,0,5,5,0,0,0-2,.79s0,0,0,0,0,0,0,0h0a5.14,5.14,0,0,1,2-.78A0,0,0,0,0,21.63,17.85Zm-2.06,6.54a2.19,2.19,0,0,1,.22-1.69,10.86,10.86,0,0,0-6.11,1.73,6,6,0,0,0,0,1.54h0a14,14,0,0,0,1.91-.1h.07l.45-.07.12,0,.39-.07.14,0,.34-.08.14,0,.3-.08.13,0,.26-.09.12,0,.23-.08.1,0,.2-.08.09,0,.16-.08.08,0,.12-.06.07,0,.1-.06.05,0,.06,0,0,0,0,0,0,0a0,0,0,0,1,.05,0s0,0,0,.05S17.63,26,13.83,26H13.7a2.15,2.15,0,0,0,.28.81,1.15,1.15,0,0,0,.18.23,1,1,0,0,0,.17.14h0a10.76,10.76,0,0,0,6-1.27A2.29,2.29,0,0,1,19.57,24.39Zm-.33,2.25A47.12,47.12,0,0,0,26,26.22l.2-.57c0-.09.15-.18.31-.28l-.5.09-.1,0-.53.09-.16,0-.59.1-.18,0-.66.11-.17,0c-1.11.17-2.4.36-3.82.53h0ZM64.7,14.89A1.53,1.53,0,0,1,64,16.26c-1.29,1-3.86,2.28-13,4.75-.07,0-5.39,1.4-10.86,2.52l.34-.29c.09-.06.51-.39.43-.67l1.56-.38.49-.12L44,21.79l.5-.13,1.31-.35.33-.09,1.23-.34.54-.15.83-.24.55-.16.92-.27,1.72-.53h0l.95-.3.32-.1.83-.27.31-.1.74-.24.23-.08.62-.21.21-.07.5-.17.15-.05.46-.16.13-.05.33-.12.09,0,.2-.07.06,0,.06,0s0,0,0,0a0,0,0,0,0-.05,0l-.06,0-.05,0-.2.07-.11,0-.3.11-.17.06-.39.13-.24.09-.38.13-.39.13-.44.15-.36.12-.66.21-.35.12-.79.25-.37.12-2.36.73h0l-.12,0-1.12.33-.45.14-.93.26-.48.14L46,21.19l-.18,0-1.36.36-.47.13L42.83,22l-.47.12-1.58.38c-.12-.18-.48-.25-1.11-.19h-.14l-1,.09s-.07,0-.06.08a.06.06,0,0,0,.07.06l1-.09h.14c.83-.07,1,.07,1,.14s-.15.36-.37.53-4.07,3.59-4.23,3.74l-8.17,7.74A17,17,0,0,0,50.27,21.32l.67-.18.85-.23A18.51,18.51,0,0,1,33.47,37a18.29,18.29,0,0,1-6.72-1.27c-1.65,1.57-2.91,2.76-3.08,2.94a4,4,0,0,1-1.92.86s-2.14.41-2.78.48c-.32,0-.38,0-.38,0s0-.15.07-.22l0,0c.06-.11,2.09-3.41,3.86-6.3a18.54,18.54,0,0,1-5.36-6.18,11.88,11.88,0,0,0,1.43-.35,17.15,17.15,0,0,0,4.69,5.3l1.87-3v0l1.15-3.42c.13-.3,1.58-.86,3.88-1.5a.07.07,0,0,0,.05-.09.08.08,0,0,0-.09-.05,21.69,21.69,0,0,0-3.49,1.21h0l-.44.08-.13,0-.52.09-.1,0c-1.35.24-3.27.54-5.49.82.2-.1.4-.2.6-.32v0c.35-.11.5-.91.35-1.81s-.54-1.55-.9-1.56a.05.05,0,0,0,0,0,11,11,0,0,0-7.29,2.33.06.06,0,0,0,0,.09.05.05,0,0,0,.05,0h0c.27-.2.55-.38.82-.55h0a6.1,6.1,0,0,0,0,1.5l-.8,0s0,0,0,0a0,0,0,0,0,0,0l.81,0a2.41,2.41,0,0,0,.25.76v0a2.3,2.3,0,0,0,.15.23h0l.16.16c-.46,0-.74-.09-.75-.09a.06.06,0,0,0-.08.05l-.28-.07s0,0,0-.05c-.84-1.39-.52-1.8-.51-1.81a.07.07,0,1,0-.1-.1s-.3.38.18,1.4h-.05l-4.18-.19L8,25.62a6.55,6.55,0,0,1,1-1.18.06.06,0,0,0,0-.06.05.05,0,0,0,0-.05L7.54,23.26c1.15-1,2.91-2.61,3.22-3l.14-.15c.15-.14.28-.27.22-.39s-.28-.19-1.2-.11c-.34,0-1.24.23-1.61.32-2.06.53-3,.85-3.2,1.07l-.18.21h0C3.34,20,1.67,18.7.69,17.86.08,17.37,0,17.12,0,17a.15.15,0,0,1,.07-.12c1.18-.32,3.71-.86,6.53-1.31a1.12,1.12,0,0,1,.72.08l1.1.51c1.45.67,3.89,1.8,6.47,3.19.08.07.93.72,3.21.63a15.14,15.14,0,0,0,4.34-.85l.47-.15.5-.15a202.71,202.71,0,0,1,24.09-6.2l2.92-.51a7.33,7.33,0,0,1,3.66,1h0a43.38,43.38,0,0,1,10,1.14A.75.75,0,0,1,64.7,14.89ZM18.45,20.14s0,0,0,0l-.05,0-.06,0h-.05l-.13,0-.05,0-.7.23-.09,0-.28.1-.13,0c-.79.27-1.81.64-2.89,1.09l-.08,0-1.21.52-.11,0c-.4.18-.8.37-1.19.57l-.07,0c-.4.2-.79.41-1.16.63,0,0,0,0,0,.05s0,0,0,0h0c.37-.21.76-.42,1.15-.62l.08,0,1.18-.56.12-.05,1.2-.52.07,0,1.2-.47c.5-.19,1-.37,1.39-.51h0l.34-.12.08,0,.31-.11h0l.75-.25h0l.14,0,.05,0h.06l.05,0S18.46,20.16,18.45,20.14ZM50.92,14l.58.44,1.16.91a.43.43,0,0,0,.36.12,2.82,2.82,0,0,0,1.2-1.33,4.34,4.34,0,0,0,.11-.59,13.78,13.78,0,0,0-2-.95,1,1,0,0,1-.26.45c-.2.16-.24.38-.75.71h0l-.16.1A1.86,1.86,0,0,1,50.92,14Zm-2.8,2.29a4.12,4.12,0,0,0,.57.64,2.06,2.06,0,0,0,.5.05c.51-.1.91-.19,1.24-.28a7.37,7.37,0,0,0,1-.38h0l.3-.15.64-.36c0-.18-.27-.31-.27-.31L51.62,15l-1-.83-.57.25h0a18.28,18.28,0,0,1-2,.72C47.74,15.33,47.74,15.76,48.12,16.26Zm-6.29,2.59a.5.5,0,0,0,.52.49.49.49,0,1,0,0-1A.5.5,0,0,0,41.83,18.85ZM39,19.77a.52.52,0,1,0,.52-.49A.5.5,0,0,0,39,19.77Zm-2.67.68a.52.52,0,1,0,.52-.49A.5.5,0,0,0,36.35,20.45Zm-2.81.68a.52.52,0,0,0,1,0,.52.52,0,0,0-1,0Zm-2.49.63a.5.5,0,0,0,.52.48.5.5,0,0,0,.52-.48.51.51,0,0,0-.52-.49A.5.5,0,0,0,31.05,21.76Zm-2,.5a.52.52,0,1,0,.51-.49A.5.5,0,0,0,29,22.26Zm-2.05.5a.51.51,0,0,0,.52.49.49.49,0,1,0,0-1A.51.51,0,0,0,27,22.76Zm-1.86.42a.52.52,0,1,0,.52-.49A.5.5,0,0,0,25.13,23.18Zm-1.41.9a.49.49,0,1,0-.52-.49A.5.5,0,0,0,23.72,24.08ZM47,20.51a.2.2,0,0,0,0-.18,12.45,12.45,0,0,1-1.31-3.5l0-.16c-.08-.32-.14-.34-.28-.33h0l-1.78.36c-.2.08-.09.42-.09.42a14,14,0,0,0,1.15,3.49h0l-.1,0-.58.14-.27.07L43,21l-.29.07-1,.24-.08,0-1.08.24-.35.08-1,.22-.4.09-3.1.65-.49.1L33.86,23l-.53.11-1.95.37h0l-2.05.38-.63.12-1.68.3-.67.12-2.4.42s0,0,0,0a0,0,0,0,0,0,0h0l2.4-.42.69-.12,1.65-.3.65-.12,2-.37.1,0,1.93-.37.55-.11,1.31-.27.51-.1,1.5-.31.12,0L38.81,22l.39-.09,1-.21.41-.09,1-.23.14,0,1-.24.3-.07.59-.14.28-.07.51-.13.18,0h0c.23.4.44.47.55.47s.08,0,.08,0,.8-.25,1.28-.35C46.77,20.72,46.93,20.63,47,20.51Zm10.59-3.76s0,0,0,0l-1.19.41-.2.07-1.24.4-.19.06c-.92.3-1.86.59-2.74.86L50.51,19h0c-1.82.54-3.17.93-3.2.93a.08.08,0,0,0,0,.05l0,0h0l.25-.07L50.49,19h0L52,18.6h0l1.39-.43h0l1.32-.41.21-.07,1.24-.41.19-.06,1.2-.41A0,0,0,0,0,57.56,16.75Zm-32.12,6.8a.18.18,0,1,0,0-.36.18.18,0,1,0,0,.36Zm2-.62a.19.19,0,0,0-.2-.18.18.18,0,1,0,.2.18Zm-4,.65a.18.18,0,1,0,0,.35.18.18,0,1,0,0-.35Zm22.07-6.73,0-.16c-.06-.25-.09-.28-.16-.28h-.09l-1.77.35c-.13.06,0,.35,0,.35a13.82,13.82,0,0,0,1.16,3.48l1.32-.34s0,0,0,0a0,0,0,0,1,0,.05l-1.31.34c.29.49.54.41.54.41s.8-.26,1.28-.36.42-.17.44-.22a.12.12,0,0,0,0-.11A12.57,12.57,0,0,1,45.55,16.85ZM29.35,22.6a.18.18,0,1,0,0-.36.18.18,0,1,0,0,.36Zm4.5-1.07a.18.18,0,1,0-.19-.18A.18.18,0,0,0,33.85,21.53Zm15.43-4.81h0s0,0,0,0,0,0,0-.05a3.86,3.86,0,0,1-1.08-1.25s0,0,0,0a0,0,0,0,0,0,0A3.87,3.87,0,0,0,49.28,16.72ZM36.65,20.84a.18.18,0,1,0,0-.36.18.18,0,1,0,0,.36Zm-5.16,1.08a.18.18,0,0,0-.19-.18.18.18,0,1,0,0,.36A.18.18,0,0,0,31.49,21.92Z" style="fill:#fff"/></svg>