<svg width="199px" height="28px" viewBox="0 0 199 28" version="1.1" xmlns="http://www.w3.org/2000/svg" xmlns:xlink="http://www.w3.org/1999/xlink"><defs><polygon id="path-1" points="0 28 198.299 28 198.299 0.43 0 0.43"/></defs><g stroke="none" stroke-width="1" fill="none" fill-rule="evenodd"><g id="Group-35" transform="translate(0.000000, -1.000000)"><path d="M40.6498,15.7402 L42.0498,12.4402 L43.4698,15.7402 L40.6498,15.7402 Z M42.8198,10.4402 L41.3398,10.4402 L37.5298,19.2002 L37.5298,19.2692 L39.1898,19.2692 L40.0798,17.1792 L44.0798,17.1792 L44.9598,19.2692 L46.6698,19.2692 L42.8298,10.4402 L42.8198,10.4402 Z" id="Fill-1" fill="#112369"/><polygon id="Fill-2" fill="#112369" points="48.289 19.2808 49.909 19.2808 49.909 10.5098 48.289 10.5098"/><g id="Group-34" transform="translate(0.000000, 0.569800)"><path d="M56.5897,14.2402 L54.4497,14.2402 L54.4497,11.4302 L56.5897,11.4302 C57.6897,11.4302 58.3297,11.9302 58.3297,12.8102 C58.3497,13.6902 57.6697,14.2402 56.5897,14.2402 M59.9897,12.7502 L59.9897,12.7502 C60.0027,12.0522 59.7397,11.3762 59.2597,10.8702 C58.5637,10.2582 57.6557,9.9422 56.7297,9.9902 L52.8297,9.9902 L52.8297,18.7602 L54.4497,18.7602 L54.4497,15.7602 L56.2697,15.7602 L58.3797,18.7602 L60.2997,18.7602 L57.9497,15.4602 C59.1967,15.1702 60.0567,14.0292 59.9897,12.7502" id="Fill-3" fill="#112369"/><path d="M73.1395,16.2505 C72.5145,16.9455 71.6245,17.3455 70.6895,17.3505 C69.1155,17.3245 67.8605,16.0275 67.8865,14.4545 C67.8865,14.4195 67.8875,14.3845 67.8895,14.3505 C67.8015,12.7845 68.9985,11.4425 70.5645,11.3545 C70.6065,11.3525 70.6475,11.3505 70.6895,11.3505 C71.5965,11.3695 72.4565,11.7515 73.0795,12.4105 L74.0795,11.2095 C73.1855,10.2885 71.9425,9.7905 70.6595,9.8405 C68.2135,9.7955 66.1935,11.7415 66.1485,14.1875 C66.1475,14.2515 66.1475,14.3155 66.1495,14.3795 C66.0935,16.8045 68.0135,18.8135 70.4375,18.8695 C70.5045,18.8715 70.5725,18.8715 70.6395,18.8695 C71.9935,18.9165 73.2955,18.3465 74.1795,17.3195 L73.1795,16.2605 L73.1395,16.2505 Z" id="Fill-5" fill="#112369"/><polygon id="Fill-7" fill="#112369" points="82.4896 13.5503 78.4696 13.5503 78.4696 9.9403 76.8496 9.9403 76.8496 18.7103 78.4696 18.7103 78.4696 15.0603 82.4896 15.0603 82.4896 18.7103 84.1096 18.7103 84.1096 9.9403 82.4896 9.9403"/><path d="M89.3392,15.1597 L90.7492,11.8607 L92.1692,15.1597 L89.3392,15.1597 Z M91.5092,9.8697 L90.0392,9.8697 L86.2192,18.6307 L86.2192,18.6997 L87.8792,18.6997 L88.7692,16.6097 L92.7692,16.6097 L93.6492,18.6997 L95.3692,18.6997 L91.5192,9.8697 L91.5092,9.8697 Z" id="Fill-9" fill="#112369"/><path d="M101.4896,14.2402 L99.3196,14.2402 L99.3196,11.4302 L101.4786,11.4302 C102.5896,11.4302 103.2186,11.9302 103.2186,12.8102 C103.2186,13.6902 102.5896,14.2402 101.4896,14.2402 M104.8586,12.7502 L104.8586,12.7502 C104.8806,12.0412 104.6176,11.3542 104.1296,10.8402 C103.4326,10.2272 102.5246,9.9112 101.5986,9.9602 L97.6986,9.9602 L97.6986,18.7302 L99.3196,18.7302 L99.3196,15.7302 L101.1386,15.7302 L103.2496,18.7302 L105.1696,18.7302 L102.8196,15.4302 C104.0546,15.1432 104.9116,14.0172 104.8586,12.7502" id="Fill-11" fill="#112369"/><polygon id="Fill-13" fill="#112369" points="106.8392 11.4502 109.5892 11.4502 109.5892 18.7102 111.2192 18.7102 111.2192 11.4502 113.9592 11.4502 113.9592 9.9402 106.8392 9.9402"/><polygon id="Fill-15" fill="#112369" points="118.0092 15.02 122.3492 15.02 122.3492 13.56 118.0092 13.56 118.0092 11.4 122.8992 11.4 122.8992 9.94 116.3892 9.94 116.3892 18.71 122.9592 18.71 122.9592 17.25 118.0092 17.25"/><path d="M129.349,14.2402 L127.179,14.2402 L127.179,11.4302 L129.339,11.4302 C130.439,11.4302 131.079,11.9302 131.079,12.8102 C131.079,13.6902 130.399,14.2402 129.349,14.2402 M132.719,12.7502 L132.719,12.7502 C132.732,12.0522 132.47,11.3762 131.989,10.8702 C131.293,10.2582 130.385,9.9422 129.459,9.9902 L125.589,9.9902 L125.589,18.7602 L127.209,18.7602 L127.209,15.7602 L129.029,15.7602 L131.139,18.7602 L133.059,18.7602 L130.709,15.4602 C131.942,15.1552 132.785,14.0182 132.719,12.7502" id="Fill-17" fill="#112369"/><path d="M142.7094,13.5801 C140.9694,13.1701 140.7094,12.8601 140.7094,12.2701 C140.7094,11.6901 141.2494,11.2701 142.0684,11.2701 C142.9154,11.2971 143.7294,11.6071 144.3794,12.1501 L145.2494,10.9201 C144.3554,10.1891 143.2324,9.8001 142.0784,9.8201 C140.3094,9.8201 139.0784,10.8701 139.0784,12.3801 C139.0784,14.0001 140.0784,14.5501 141.9994,15.0101 C143.6184,15.3901 143.9084,15.7201 143.9084,16.2901 C143.9084,16.9301 143.3284,17.3401 142.4294,17.3401 C141.4204,17.3211 140.4554,16.9201 139.7294,16.2201 L138.7294,17.3801 C139.7234,18.2881 141.0224,18.7881 142.3684,18.7801 C144.2694,18.7801 145.509466,17.7801 145.509466,16.1501 C145.5194,14.5901 144.3984,13.9901 142.7094,13.5801" id="Fill-19" fill="#112369"/><polygon id="Fill-21" fill="#112369" points="149.7094 15.02 154.0384 15.02 154.0384 13.56 149.7094 13.56 149.7094 11.4 154.5994 11.4 154.5994 9.94 148.0894 9.94 148.0894 18.71 154.6584 18.71 154.6584 17.25 149.7094 17.25"/><path d="M161.1488,14.2402 L158.9788,14.2402 L158.9788,11.4302 L161.1388,11.4302 C162.2388,11.4302 162.8788,11.9302 162.8788,12.8102 C162.8788,13.6902 162.1988,14.2402 161.1488,14.2402 M164.5188,12.7502 L164.5188,12.7502 C164.5318,12.0522 164.2698,11.3762 163.7888,10.8702 C163.0928,10.2582 162.1848,9.9422 161.2588,9.9902 L157.3588,9.9902 L157.3588,18.7602 L158.9788,18.7602 L158.9788,15.7602 L160.7988,15.7602 L162.9088,18.7602 L164.8288,18.7602 L162.4788,15.4602 C163.7238,15.1672 164.5818,14.0272 164.5188,12.7502" id="Fill-23" fill="#112369"/><polygon id="Fill-25" fill="#112369" points="170.3988 16.52 167.8288 9.94 166.0388 9.94 169.6588 18.74 169.6688 18.77 171.0878 18.77 174.6788 10.01 174.7088 9.94 172.9588 9.94"/><mask id="mask-2" fill="white"><use xlink:href="#path-1"/></mask><g id="Clip-28"/><polygon id="Fill-27" fill="#112369" mask="url(#mask-2)" points="176.989 18.711 178.609 18.711 178.609 9.94 176.989 9.94"/><path d="M188.309,16.2505 C187.683,16.9455 186.793,17.3455 185.859,17.3505 C184.285,17.3245 183.03,16.0275 183.055,14.4545 C183.056,14.4195 183.057,14.3845 183.059,14.3505 C182.97,12.7845 184.168,11.4425 185.734,11.3545 C185.776,11.3525 185.817,11.3505 185.859,11.3505 C186.765,11.3695 187.625,11.7515 188.248,12.4105 L189.248,11.2095 C188.355,10.2885 187.112,9.7905 185.829,9.8405 C183.388,9.7945 181.372,11.7365 181.328,14.1775 C181.327,14.2455 181.327,14.3125 181.329,14.3795 C181.267,16.7985 183.178,18.8085 185.596,18.8695 C185.667,18.8715 185.738,18.8715 185.809,18.8695 C187.165,18.9155 188.469,18.3455 189.359,17.3195 L188.359,16.2605 L188.309,16.2505 Z" id="Fill-29" fill="#112369" mask="url(#mask-2)"/><polygon id="Fill-30" fill="#112369" mask="url(#mask-2)" points="193.3383 17.2505 193.3383 15.0205 197.6783 15.0205 197.6783 13.5605 193.3383 13.5605 193.3383 11.3995 198.2293 11.3995 198.2293 9.9395 191.7183 9.9395 191.7183 18.7105 198.2983 18.7105 198.2983 17.2505"/><polygon id="Fill-31" fill="#112369" mask="url(#mask-2)" points="15.9701 0.4302 23.0601 12.7402 15.9701 17.2602 8.8801 12.7402"/><polygon id="Fill-32" fill="#828E96" mask="url(#mask-2)" points="-0.0001 28.0005 15.2999 18.2605 8.2199 13.7405"/><polygon id="Fill-33" fill="#00AAE5" mask="url(#mask-2)" points="31.9296 28.0005 16.6296 18.2605 23.7196 13.7405"/></g></g></g></svg>