<svg width="227" height="32" viewBox="0 0 227 32" fill="none" xmlns="http://www.w3.org/2000/svg">
<path d="M16.5332 1.31657C8.43684 1.31657 1.816 7.46058 1.362 15.1771H0C0.416167 6.72915 7.68017 0 16.5332 0C25.3862 0 32.6123 6.72915 33.0663 15.1771H31.7043C31.2503 7.46058 24.6673 1.35314 16.5332 1.31657ZM16.5332 30.6834C8.43684 30.6834 1.816 24.5394 1.362 16.8229H0C0.416167 25.2709 7.68017 32 16.5332 32C25.3862 32 32.6123 25.2709 33.0663 16.8229H31.7043C31.2503 24.5394 24.6673 30.6469 16.5332 30.6834ZM10.9338 16.7863H12.9012L9.45833 24.9783L9.38267 25.1611H7.41533L10.9338 16.7863ZM21.4893 15.2137H19.522L16.571 8.192L13.62 15.2137H11.6148L16.571 3.43772L21.4893 15.2137ZM25.6888 25.1977H23.7215L20.203 16.8229H22.1703L25.6888 25.1977ZM52.8532 17.92H47.7457L50.3183 12.288L52.8532 17.92ZM53.572 19.5291L55.1988 23.0034H57.1283L50.2805 8.52114L43.4327 23.0034H45.3622L46.989 19.5291H53.572ZM67.6082 10.8983C66.8137 9.54514 65.5273 8.81371 63.9005 8.81371C61.744 8.81371 59.6632 10.1669 59.6632 12.3977C59.6632 14.336 61.1387 15.2503 62.8033 15.9086L63.787 16.3109C65.0355 16.8229 66.284 17.4446 66.284 18.944C66.284 20.4069 65.1868 21.6503 63.6357 21.6503C62.0845 21.6503 60.836 20.5531 60.836 19.0171L59.02 19.3829C59.3227 21.6137 61.1387 23.2594 63.4465 23.2594C66.0192 23.2594 68.0622 21.4674 68.0622 18.944C68.0622 16.6034 66.5488 15.5429 64.5058 14.7749L63.4843 14.3726C62.5763 14.0434 61.4792 13.4583 61.4792 12.3977C61.4792 11.1909 62.7277 10.4229 63.8627 10.4229C64.9598 10.4229 65.6408 10.8617 66.1705 11.7394L67.6082 10.8983ZM71.3915 23.0034H73.1697V9.10629H71.3915V23.0034ZM85.2007 17.92H80.0932L82.6658 12.288L85.2007 17.92ZM85.9573 19.5291L87.5842 23.0034H89.5137L82.628 8.52114L75.7802 23.0034H77.7097L79.3365 19.5291H85.9573ZM91.9728 23.0034H93.751V12.6537L104.533 23.5886V9.10629H102.755V19.3829L91.9728 8.448V23.0034ZM123.299 10.8983C122.504 9.54514 121.218 8.81371 119.591 8.81371C117.435 8.81371 115.354 10.1669 115.354 12.3977C115.354 14.336 116.829 15.2503 118.494 15.9086L119.478 16.3109C120.726 16.8229 121.975 17.4446 121.975 18.944C121.975 20.4069 120.877 21.6503 119.326 21.6503C117.775 21.6503 116.527 20.5531 116.527 19.0171L114.711 19.3829C115.013 21.6137 116.829 23.2594 119.137 23.2594C121.71 23.2594 123.753 21.4674 123.753 18.944C123.753 16.6034 122.24 15.5429 120.197 14.7749L119.175 14.3726C118.267 14.0434 117.17 13.4583 117.17 12.3977C117.17 11.1909 118.418 10.4229 119.553 10.4229C120.65 10.4229 121.332 10.8617 121.861 11.7394L123.299 10.8983ZM128.179 15.1406V9.10629H126.401V23.0034H128.179V17.1886L128.898 16.5303L134.308 23.0034H136.73L130.147 15.36L136.616 9.10629H134.27L128.179 15.1406ZM143.994 16.9326V22.9669H145.772V16.9326L150.463 9.06971H148.42L144.902 14.9943L141.383 9.06971H139.34L143.994 16.9326ZM167.45 15.9817V17.5543H171.158C171.082 19.8217 168.661 21.6869 166.429 21.6869C163.326 21.6869 160.829 18.9074 160.829 16.0183C160.829 12.9097 163.364 10.3863 166.58 10.3863C168.32 10.3863 170.061 11.3006 171.082 12.6537L172.331 11.4834C170.931 9.76457 168.699 8.77715 166.467 8.77715C162.343 8.77715 159.013 12.0686 159.013 16.0549C159.013 19.8949 162.267 23.2594 166.277 23.2594C170.288 23.2594 173.087 20.3337 173.087 16.5303V15.9817H167.45ZM177.779 10.6423H178.271C180.049 10.6423 182.167 10.9714 182.167 13.1291C182.167 15.36 180.2 15.6891 178.346 15.6891H177.779V10.6423ZM180.389 16.9326C182.47 16.7131 183.832 15.0309 183.832 13.056C183.832 11.7394 183.151 10.4229 181.94 9.72799C180.805 9.10628 179.406 9.06971 178.157 9.06971H176.001V22.9669H177.779V17.1154H178.535L182.773 23.0034H184.929L180.389 16.9326ZM200.025 16.0549C200.025 19.2366 197.376 21.6869 194.274 21.6869C191.172 21.6869 188.523 19.2366 188.523 16.0549C188.523 12.9829 190.869 10.4229 194.274 10.4229C197.679 10.4229 200.025 12.9829 200.025 16.0549ZM201.841 16.0549C201.841 12.0686 198.436 8.81371 194.312 8.81371C190.188 8.81371 186.783 12.0686 186.783 16.0549C186.783 20.1874 190.15 23.296 194.312 23.296C198.436 23.296 201.841 20.1874 201.841 16.0549ZM204.754 9.10629V17.8834C204.754 20.9554 206.721 23.296 210.013 23.296C213.304 23.296 215.272 20.9554 215.272 17.8834V9.10629H213.493V17.2983C213.493 19.5657 212.775 21.6503 210.013 21.6503C207.251 21.6503 206.532 19.5657 206.532 17.2983V9.10629H204.754ZM220.947 10.6423H221.438C223.217 10.6423 225.335 10.8983 225.335 13.0926C225.335 15.2869 223.368 15.6526 221.514 15.6526H220.947V10.6423ZM220.947 17.1886H221.968C224.692 17.1886 227 16.0549 227 13.1291C227 10.5691 225.638 9.10629 221.212 9.10629H219.168V23.0034H220.947V17.1886Z" fill="white"/>
</svg>